<svg id="Layer_1" enable-background="new 0 0 512 512" height="512" viewBox="0 0 512 512" width="512" xmlns="http://www.w3.org/2000/svg"><g><path d="m335 127.5h-258c-14.359 0-26-11.641-26-26v-68c0-14.359 11.641-26 26-26h258c14.359 0 26 11.641 26 26v68c0 14.359-11.641 26-26 26z" fill="#a9dbf5"/><path d="m335 7.5h-30c14.359 0 26 11.641 26 26v68c0 14.359-11.641 26-26 26h30c14.359 0 26-11.641 26-26v-68c0-14.359-11.641-26-26-26z" fill="#88c3e0"/><path d="m335 271.5h-258c-14.359 0-26-11.641-26-26v-68c0-14.359 11.641-26 26-26h258c14.359 0 26 11.641 26 26v68c0 14.359-11.641 26-26 26z" fill="#a9dbf5"/><path d="m335 151.5h-30c14.359 0 26 11.641 26 26v68c0 14.359-11.641 26-26 26h30c14.359 0 26-11.641 26-26v-68c0-14.359-11.641-26-26-26z" fill="#88c3e0"/><path d="m91 127.5h230v24h-230z" fill="#4380a0"/><path d="m335 415.5h-258c-14.359 0-26-11.641-26-26v-68c0-14.359 11.641-26 26-26h258c14.359 0 26 11.641 26 26v68c0 14.359-11.641 26-26 26z" fill="#a9dbf5"/><path d="m335 295.5h-30c14.359 0 26 11.641 26 26v68c0 14.359-11.641 26-26 26h30c14.359 0 26-11.641 26-26v-68c0-14.359-11.641-26-26-26z" fill="#88c3e0"/><path d="m91 271.5h230v24h-230z" fill="#4380a0"/><g fill="#f75632"><path d="m110 98.575c-8.284 0-15-6.716-15-15v-32c0-8.284 6.716-15 15-15 8.284 0 15 6.716 15 15v32c0 8.284-6.716 15-15 15z"/><path d="m110 242.575c-8.284 0-15-6.716-15-15v-32c0-8.284 6.716-15 15-15 8.284 0 15 6.716 15 15v32c0 8.284-6.716 15-15 15z"/><path d="m110 387.575c-8.284 0-15-6.716-15-15v-32c0-8.284 6.716-15 15-15 8.284 0 15 6.716 15 15v32c0 8.284-6.716 15-15 15z"/></g><path d="m489.5 489.5h-467c-8.284 0-15-6.716-15-15 0-8.284 6.716-15 15-15h467c8.284 0 15 6.716 15 15 0 8.284-6.716 15-15 15z" fill="#4380a0"/><path d="m489.5 459.5h-30c8.284 0 15 6.716 15 15s-6.716 15-15 15h30c8.284 0 15-6.716 15-15s-6.716-15-15-15z" fill="#3b7191"/><path d="m191 415.5h30v44h-30z" fill="#3b7191"/><circle cx="206" cy="474.5" fill="#ffc808" r="30"/><path d="m206 444.5c-5.466 0-10.586 1.469-15 4.023 8.964 5.188 15 14.874 15 25.977s-6.036 20.789-15 25.977c4.414 2.554 9.534 4.023 15 4.023 16.569 0 30-13.431 30-30s-13.431-30-30-30z" fill="#ffae08"/><circle cx="355" cy="209" fill="#f3f3f3" r="127"/><path d="m355 82c-5.076 0-10.08.307-15 .886 63.069 7.423 112 61.05 112 126.114s-48.931 118.691-112 126.114c4.92.579 9.924.886 15 .886 70.14 0 127-56.86 127-127s-56.86-127-127-127z" fill="#e4e4e4"/><path d="m357.924 134.534c-7.794 0-61 22.702-61 39.433 0 55.885 41.931 108.567 61 108.567s61-52.682 61-108.567c0-16.731-53.206-39.433-61-39.433z" fill="#f75632"/><path d="m357.924 134.534c-2.176 0-7.892 1.77-15 4.685 18.355 7.526 46 22.688 46 34.748 0 43.745-25.692 85.525-46 101.614 5.636 4.465 10.858 6.953 15 6.953 19.069 0 61-52.682 61-108.567 0-16.731-53.206-39.433-61-39.433z" fill="#e33629"/><g><path d="m87.5 51.575v32c0 12.407 10.093 22.5 22.5 22.5s22.5-10.093 22.5-22.5v-32c0-12.407-10.093-22.5-22.5-22.5s-22.5 10.093-22.5 22.5zm30 0v32c0 4.136-3.364 7.5-7.5 7.5s-7.5-3.364-7.5-7.5v-32c0-4.136 3.364-7.5 7.5-7.5s7.5 3.364 7.5 7.5z"/><path d="m110 250.075c12.407 0 22.5-10.093 22.5-22.5v-32c0-12.407-10.093-22.5-22.5-22.5s-22.5 10.093-22.5 22.5v32c0 12.407 10.093 22.5 22.5 22.5zm-7.5-54.5c0-4.136 3.364-7.5 7.5-7.5s7.5 3.364 7.5 7.5v32c0 4.136-3.364 7.5-7.5 7.5s-7.5-3.364-7.5-7.5z"/><path d="m110 318.075c-12.407 0-22.5 10.093-22.5 22.5v32c0 12.407 10.093 22.5 22.5 22.5s22.5-10.093 22.5-22.5v-32c0-12.407-10.093-22.5-22.5-22.5zm7.5 54.5c0 4.136-3.364 7.5-7.5 7.5s-7.5-3.364-7.5-7.5v-32c0-4.136 3.364-7.5 7.5-7.5s7.5 3.364 7.5 7.5z"/><path d="m489.5 452h-253.52c-2.13-2.83-4.65-5.35-7.48-7.48v-21.52h106.5c18.472 0 33.5-15.028 33.5-33.5v-46.69c22.691-2.258 44.307-10.179 63.169-23.287 3.401-2.364 4.242-7.037 1.879-10.438s-7.036-4.243-10.439-1.879c-20.047 13.93-43.599 21.294-68.109 21.294-65.893 0-119.5-53.607-119.5-119.5s53.607-119.5 119.5-119.5 119.5 53.607 119.5 119.5c0 28.708-10.329 56.458-29.084 78.14-2.71 3.133-2.367 7.869.765 10.579 3.134 2.709 7.87 2.368 10.579-.766 21.113-24.406 32.74-55.642 32.74-87.953 0-69.607-53.152-127.032-121-133.825v-41.675c0-18.472-15.028-33.5-33.5-33.5h-165.295c-4.142 0-7.5 3.358-7.5 7.5s3.358 7.5 7.5 7.5h165.295c10.201 0 18.5 8.299 18.5 18.5v41.019c-39.462.434-74.896 17.945-99.249 45.481h-177.251c-10.201 0-18.5-8.299-18.5-18.5v-68c0-10.201 8.299-18.5 18.5-18.5h61.263c4.142 0 7.5-3.358 7.5-7.5s-3.358-7.5-7.5-7.5h-61.263c-18.472 0-33.5 15.028-33.5 33.5v68c0 18.472 15.028 33.5 33.5 33.5h6.5v9h-6.5c-18.472 0-33.5 15.028-33.5 33.5v68c0 18.472 15.028 33.5 33.5 33.5h6.5v9h-6.5c-18.472 0-33.5 15.028-33.5 33.5v68c0 18.472 15.028 33.5 33.5 33.5h106.5v21.52c-2.83 2.129-5.35 4.649-7.48 7.48h-153.52c-12.407 0-22.5 10.093-22.5 22.5s10.093 22.5 22.5 22.5h73.414c4.142 0 7.5-3.358 7.5-7.5s-3.358-7.5-7.5-7.5h-73.414c-4.136 0-7.5-3.364-7.5-7.5s3.364-7.5 7.5-7.5h146.755c-.494 2.424-.755 4.932-.755 7.5s.261 5.076.755 7.5h-40.829c-4.142 0-7.5 3.358-7.5 7.5s3.358 7.5 7.5 7.5h47.595c6.849 9.102 17.737 15 29.98 15s23.131-5.898 29.98-15h253.519c6.017 0 11.668-2.346 15.893-6.586 4.261-4.244 6.607-9.896 6.607-15.914 0-12.407-10.094-22.5-22.5-22.5zm-391-317h144.246c-1.933 2.923-3.756 5.924-5.461 9h-138.785zm-40 110.5v-68c0-10.201 8.299-18.5 18.5-18.5h153.144c-6.215 15.465-9.644 32.339-9.644 50 0 19.583 4.21 38.201 11.768 55h-155.268c-10.201 0-18.5-8.299-18.5-18.5zm40 33.5h141.693c1.888 3.085 3.901 6.085 6.024 9h-147.717zm-40 110.5v-68c0-10.201 8.299-18.5 18.5-18.5h181.902c24.107 24.64 57.58 40.074 94.598 40.481v46.019c0 10.201-8.299 18.5-18.5 18.5h-258c-10.201 0-18.5-8.299-18.5-18.5zm140 33.5h15v14.755c-2.424-.494-4.932-.755-7.5-.755s-5.076.261-7.5.755zm7.5 74c-12.407 0-22.5-10.093-22.5-22.5s10.093-22.5 22.5-22.5 22.5 10.093 22.5 22.5-10.093 22.5-22.5 22.5zm288.787-17.194c-1.41 1.415-3.287 2.194-5.287 2.194h-246.755c.494-2.424.755-4.932.755-7.5s-.261-5.076-.755-7.5h246.755c4.136 0 7.5 3.364 7.5 7.5 0 2-.779 3.877-2.213 5.306z"/></g><path d="m357.924 134.534c-7.794 0-61 22.702-61 39.433 0 55.885 41.931 108.567 61 108.567s61-52.682 61-108.567c0-16.731-53.206-39.433-61-39.433z" style="fill:none;stroke:#000;stroke-width:15;stroke-linecap:round;stroke-linejoin:round;stroke-miterlimit:10"/></g></svg>