<svg id="Layer_1" enable-background="new 0 0 512 512" height="512" viewBox="0 0 512 512" width="512" xmlns="http://www.w3.org/2000/svg"><g><path d="m423 504.5h-334c-11.046 0-20-8.954-20-20v-457c0-11.046 8.954-20 20-20h334c11.046 0 20 8.954 20 20v457c0 11.046-8.954 20-20 20z" fill="#a9dbf5"/><path d="m423 7.5h-30c11.046 0 20 8.954 20 20v457c0 11.046-8.954 20-20 20h30c11.046 0 20-8.954 20-20v-457c0-11.046-8.954-20-20-20z" fill="#88c3e0"/><path d="m99 286.5v-215c0-18.778 15.222-34 34-34h246c18.778 0 34 15.222 34 34v369c0 18.778-15.222 34-34 34h-92c-103.83 0-188-84.17-188-188z" fill="#4380a0"/><path d="m379 37.5h-30c18.778 0 34 15.222 34 34v369c0 18.778-15.222 34-34 34h30c18.778 0 34-15.222 34-34v-369c0-18.778-15.222-34-34-34z" fill="#3b7191"/><path d="m379 474.5h-86v-86c0-18.778 15.222-34 34-34h86v86c0 18.778-15.222 34-34 34z" fill="#bbf7ff"/><path d="m383 354.5v86c0 18.778-15.222 34-34 34h30c18.778 0 34-15.222 34-34v-86z" fill="#8bf0ff"/><circle cx="256" cy="216" fill="#bbf7ff" r="128"/><circle cx="256" cy="216" fill="#f75632" r="40"/><path d="m256 176c-5.306 0-10.367 1.042-15 2.919 14.657 5.935 25 20.296 25 37.081s-10.343 31.146-25 37.081c4.633 1.876 9.694 2.919 15 2.919 22.091 0 40-17.909 40-40s-17.909-40-40-40z" fill="#e33629"/><path d="m351.441 392.113-22.627 22.627-76.216-76.216c-10.734-10.734-17.607-24.723-19.545-39.779-.179-1.389 1.004-2.571 2.393-2.393 15.056 1.937 29.045 8.811 39.779 19.545z" fill="#ffc808"/><circle cx="350.66" cy="413.96" fill="#f75632" r="23"/><circle cx="120" cy="453" fill="#4380a0" r="17"/><g><path d="m256 168.5c-26.191 0-47.5 21.309-47.5 47.5s21.309 47.5 47.5 47.5 47.5-21.309 47.5-47.5-21.309-47.5-47.5-47.5zm0 80c-17.92 0-32.5-14.58-32.5-32.5s14.58-32.5 32.5-32.5 32.5 14.58 32.5 32.5-14.58 32.5-32.5 32.5z"/><path d="m443 440.556c-4.142 0-7.5 3.358-7.5 7.5v36.444c0 6.893-5.607 12.5-12.5 12.5h-334c-6.893 0-12.5-5.607-12.5-12.5v-388.627c0-4.142-3.358-7.5-7.5-7.5s-7.5 3.358-7.5 7.5v388.627c0 15.164 12.336 27.5 27.5 27.5h334c15.164 0 27.5-12.336 27.5-27.5v-36.444c0-4.142-3.358-7.5-7.5-7.5z"/><path d="m423 0h-334c-15.164 0-27.5 12.336-27.5 27.5v36.187c0 4.142 3.358 7.5 7.5 7.5s7.5-3.358 7.5-7.5v-36.187c0-6.893 5.607-12.5 12.5-12.5h334c6.893 0 12.5 5.607 12.5 12.5v387.813c0 4.142 3.358 7.5 7.5 7.5s7.5-3.358 7.5-7.5v-387.813c0-15.164-12.336-27.5-27.5-27.5z"/><path d="m287 482h92c22.883 0 41.5-18.617 41.5-41.5v-369c0-22.883-18.617-41.5-41.5-41.5h-246c-22.883 0-41.5 18.617-41.5 41.5v215c0 107.799 87.701 195.5 195.5 195.5zm-23.67-143.356c-.005-.005-.01-.01-.015-.015l-5.414-5.415c-7.721-7.713-13.25-17.46-15.977-27.999 4.04 1.038 7.962 2.486 11.722 4.333 6.053 2.981 11.525 6.901 16.271 11.656l40.592 40.587c.024.023.046.048.071.071l25.383 25.38c-2.465 1.354-4.784 3.066-6.87 5.152s-3.798 4.406-5.153 6.87zm76.37 64.356c3.022-3.021 6.991-4.533 10.96-4.533s7.938 1.511 10.96 4.533c6.043 6.043 6.043 15.877 0 21.92-6.043 6.042-15.876 6.043-21.92 0-6.043-6.044-6.043-15.877 0-21.92zm39.3 64h-78.5v-69.966l19.811 19.814c.643 6.822 3.57 13.466 8.782 18.679 5.946 5.946 13.756 8.919 21.567 8.919 7.81 0 15.621-2.973 21.566-8.919 11.892-11.892 11.892-31.242 0-43.133-5.212-5.212-11.858-8.139-18.68-8.782l-21.613-21.612h73.567v78.5c0 14.612-11.888 26.5-26.5 26.5zm-272.5-395.5c0-14.612 11.888-26.5 26.5-26.5h246c14.612 0 26.5 11.888 26.5 26.5v275.5h-78.5c-3.074 0-6.108.339-9.069 1l-7.776-7.775c49.102-21.358 81.345-69.879 81.345-124.225 0-33.353-12.229-65.405-34.433-90.254-2.76-3.088-7.501-3.354-10.59-.595-3.088 2.76-3.355 7.501-.595 10.59 19.744 22.095 30.618 50.598 30.618 80.259 0 50.339-31.097 95.066-77.848 112.723l-18.123-18.121c-5.907-5.917-12.721-10.799-20.263-14.514-7.516-3.691-15.543-6.105-23.844-7.174-2.748-.359-5.523.485-7.609 2.315-2.086 1.832-3.283 4.467-3.283 7.231 0 .348.026.736.063 1.086.005.051.012.102.018.152 1.669 12.953 6.727 25.319 14.476 35.749-58.949-7.811-104.587-58.397-104.587-119.447 0-66.444 54.056-120.5 120.5-120.5 24.147 0 47.442 7.115 67.366 20.576 3.434 2.318 8.094 1.417 10.414-2.016 2.319-3.433 1.416-8.095-2.016-10.414-22.414-15.142-48.613-23.146-75.764-23.146-74.715 0-135.5 60.785-135.5 135.5 0 74.367 60.223 134.924 134.459 135.487l30.992 30.996c-.289 1.987-.451 3.997-.451 6.017v78.481c-98.839-.81-179-81.455-179-180.481z"/><path d="m95.5 453c0 13.509 10.991 24.5 24.5 24.5s24.5-10.991 24.5-24.5-10.991-24.5-24.5-24.5-24.5 10.991-24.5 24.5zm34 0c0 5.238-4.262 9.5-9.5 9.5s-9.5-4.262-9.5-9.5 4.262-9.5 9.5-9.5 9.5 4.262 9.5 9.5z"/></g></g></svg>